<svg xmlns="http://www.w3.org/2000/svg" aria-hidden="true" focusable="false" role="img" viewBox="0 0 172 141.81" ><path d="M170.11,.23c-5.84,1.66-11.73,3.12-17.57,4.79-15.55,4.44-30.88,9.35-44.32,18.85-15.19,10.75-27.71,23.34-31.32,43.06-1.5-3.44-2.54-6.58-4.25-9.41-5.7-9.43-13.95-16.26-22.97-22.22C34.94,25.56,17.75,22.37,1.17,17.57c-.99-.29-1.36,.06-1.08,1.16,.8,3.14,1.36,6.34,2.28,9.44,2.73,9.23,5.95,18.22,12.98,25.25,7.5,7.5,16.52,12.61,26.25,16.48,6.56,2.61,13.39,4.54,19.97,7.1,8.19,3.19,15.2,7.82,18.76,16.46,2.88,7.01,4.45,14.28,4.9,21.79,.48,7.91-.16,15.81-.71,23.7-.12,1.71,.23,2.4,1.95,2.67,1.44,.22,2.77,.28,4.18-.11,1.23-.34,1.74-.94,1.76-2.27,.15-9.73,.92-19.46-.14-29.19-1.04-9.52-3.12-18.73-8.49-26.84-1.35-2.03-.83-2.89,.91-4.1,7.97-5.56,17.01-8.74,26.17-11.51,12.56-3.8,24.17-9.42,34.76-17.12,7.89-5.73,14.07-12.93,17.98-21.95,3.71-8.58,6.37-17.48,8.25-26.63,.39-1.92,.06-2.18-1.75-1.67ZM28.67,45.57c-3.78-2.86-7.54-5.73-10.61-9.47,14.43,12.81,32.48,19.93,48.04,30.89-12.63-6.94-25.9-12.69-37.43-21.42Zm116.05-19.57c-14.14,13.48-30.57,23.69-47.4,33.37-5.33,3.07-10.24,6.72-14.86,10.8,3.61-4.79,8.22-8.44,13.04-11.84,4.56-3.22,9.39-6,14.21-8.79,15.48-8.95,29.9-19.27,42.33-32.23,.26-.27,.58-.5,1.04-.58-2.47,3.38-5.34,6.38-8.37,9.26Z" style="fill:#3fb8be;"/></svg>
